<svg xmlns="http://www.w3.org/2000/svg" width="1294.72" height="448">
  <defs>
    <clipPath id="a">
      <path d="M239.41 175.34a4 4 0 0 0-6.77-2.16L211.88 194l-16.34-31.11a4 4 0 0 0-7.08 0l-8.93 17-22.4-41.77a4 4 0 0 0-7.48 1.28L128 278l57.9 32.46a12 12 0 0 0 11.7 0L256 278z" fill="none"/>
    </clipPath>
    <linearGradient x1="152.9" y1="230.54" x2="144.9" y2="226.36" gradientUnits="userSpaceOnUse" id="b">
      <stop offset="0" stop-color="#a52714"/>
      <stop offset=".4" stop-color="#a52714" stop-opacity=".5"/>
      <stop offset=".8" stop-color="#a52714" stop-opacity="0"/>
    </linearGradient>
    <linearGradient x1="186.89" y1="218.91" x2="183.31" y2="215.33" gradientUnits="userSpaceOnUse" id="c">
      <stop offset="0" stop-color="#a52714" stop-opacity=".8"/>
      <stop offset=".5" stop-color="#a52714" stop-opacity=".21"/>
      <stop offset="1" stop-color="#a52714" stop-opacity="0"/>
    </linearGradient>
    <linearGradient x1="123.188" y1="168.281" x2="256.875" y2="301.968" gradientUnits="userSpaceOnUse" id="d">
      <stop offset="0" stop-color="#fff" stop-opacity=".1"/>
      <stop offset="1" stop-color="#fff" stop-opacity="0"/>
    </linearGradient>
  </defs>
  <g fill="none">
    <path d="M0 0h1294.72v448H0z"/>
    <g clip-path="url(#a)">
      <path d="M128 278l21.66-138.61a4 4 0 0 1 7.48-1.27l22.4 41.78 8.93-17a4 4 0 0 1 7.08 0L256 278z" fill="#ffa000"/>
      <path d="M202 137l-106-9v192l32-42z" fill="url(#b)" opacity=".12"/>
      <path d="M202.83 224.01l-23.3-44.12L128 278z" fill="#f57c00"/>
      <path d="M96 128h192v192H96z" fill="url(#c)" opacity=".2"/>
      <path d="M256 278l-16.59-102.66a4 4 0 0 0-6.77-2.16L128 278l57.9 32.47a12 12 0 0 0 11.7 0z" fill="#ffca28"/>
      <path d="M239.41 175.34a4 4 0 0 0-6.77-2.16L211.88 194l-16.34-31.11a4 4 0 0 0-7.08 0l-8.93 17-22.4-41.77a4 4 0 0 0-7.48 1.28L128 278h-.08l.07.08.57.28L211.83 195l20.78-20.8a4 4 0 0 1 6.78 2.16l16.45 101.74.16-.1zM128.19 277.81l21.47-137.42a4 4 0 0 1 7.48-1.28l22.4 41.78 8.93-17a4 4 0 0 1 7.08 0l16 30.43z" fill-opacity=".2" fill="#fff"/>
      <path d="M197.6 309.49a12 12 0 0 1-11.7 0l-57.76-32.4-.14.91 57.9 32.46a12 12 0 0 0 11.7 0L256 278l-.15-.92z" fill="#a52714" opacity=".2"/>
      <path d="M239.41 175.34a4 4 0 0 0-6.77-2.16L211.88 194l-16.34-31.11a4 4 0 0 0-7.08 0l-8.93 17-22.4-41.77a4 4 0 0 0-7.48 1.28L128 278l57.9 32.46a12 12 0 0 0 11.7 0L256 278z" fill="url(#d)"/>
    </g>
    <circle cx="240" cy="272" r="40" fill="#757575"/>
    <path d="M240 274l-18 8v-8l18-8 18 8v7-1.5 2.5zm0-22l18 8v8l-18-8-18 8v-8zm6.75 29l9 4-15.75 7v-8z" fill="#fff" fill-rule="evenodd"/>
    <path d="M383.61 274.05c-13.48 0-24.787-4.567-33.92-13.7-9.127-9.127-13.69-20.517-13.69-34.17 0-13.653 4.563-25.047 13.69-34.18 9.133-9.133 20.44-13.7 33.92-13.7 13.827 0 25.05 4.993 33.67 14.98l-8.2 7.94c-6.227-7.767-14.717-11.65-25.47-11.65-9.98 0-18.407 3.37-25.28 10.11-6.867 6.74-10.3 15.573-10.3 26.5 0 10.92 3.433 19.75 10.3 26.49 6.873 6.74 15.3 10.11 25.28 10.11 11.007 0 20.393-4.437 28.16-13.31l8.19 8.19c-4.18 5.04-9.427 9.03-15.74 11.97-6.313 2.947-13.183 4.42-20.61 4.42zm57.35-93.7V272h-11.78v-91.65zm18.56 36.42c6.053-6.36 13.773-9.54 23.16-9.54s17.11 3.18 23.17 9.54c6.06 6.353 9.09 14.31 9.09 23.87s-3.03 17.517-9.09 23.87c-6.06 6.36-13.783 9.54-23.17 9.54-9.387 0-17.107-3.18-23.16-9.54-6.06-6.353-9.09-14.31-9.09-23.87s3.03-17.517 9.09-23.87zm8.76 40.32c4.053 4.14 8.853 6.21 14.4 6.21 5.547 0 10.347-2.07 14.4-6.21 4.053-4.14 6.08-9.623 6.08-16.45s-2.027-12.31-6.08-16.45c-4.053-4.14-8.853-6.21-14.4-6.21-5.547 0-10.347 2.07-14.4 6.21-4.053 4.14-6.08 9.623-6.08 16.45s2.027 12.31 6.08 16.45zm111.17-47.81V272h-11.26v-8.7h-.51c-1.793 2.987-4.527 5.523-8.2 7.61-3.667 2.093-7.547 3.14-11.64 3.14-7.853 0-13.807-2.39-17.86-7.17-4.053-4.78-6.08-11.18-6.08-19.2v-38.4h11.78v36.48c0 11.693 5.16 17.54 15.48 17.54 4.867 0 8.837-1.963 11.91-5.89 3.073-3.927 4.61-8.45 4.61-13.57v-34.56zm39.3 64.77c-8.107 0-15.103-3.2-20.99-9.6-5.893-6.4-8.84-14.337-8.84-23.81 0-9.473 2.947-17.41 8.84-23.81 5.887-6.4 12.883-9.6 20.99-9.6 4.78 0 9.067 1.023 12.86 3.07 3.8 2.053 6.637 4.613 8.51 7.68h.52l-.52-8.7v-28.93h11.78V272h-11.26v-8.7h-.52c-1.873 3.067-4.71 5.627-8.51 7.68-3.793 2.047-8.08 3.07-12.86 3.07zm1.92-10.75c5.547 0 10.26-2.05 14.14-6.15 3.887-4.093 5.83-9.597 5.83-16.51 0-6.913-1.943-12.417-5.83-16.51-3.88-4.1-8.593-6.15-14.14-6.15-5.46 0-10.153 2.07-14.08 6.21-3.927 4.14-5.89 9.623-5.89 16.45s1.963 12.31 5.89 16.45c3.927 4.14 8.62 6.21 14.08 6.21zm87.55-30.6V272h-11.78v-91.65h53.51v11.27h-41.73v30.08h37.63v11zm63.87-39.16c-1.62 1.62-3.583 2.43-5.89 2.43-2.3 0-4.26-.81-5.88-2.43-1.627-1.627-2.44-3.59-2.44-5.89 0-2.307.813-4.27 2.44-5.89 1.62-1.62 3.58-2.43 5.88-2.43 2.307 0 4.27.81 5.89 2.43s2.43 3.583 2.43 5.89c0 2.3-.81 4.263-2.43 5.89zm0 15.74V272h-11.77v-62.72zm25.86 28.42V272h-11.78v-62.72h11.27v10.24h.51c1.193-3.413 3.647-6.23 7.36-8.45 3.713-2.22 7.317-3.33 10.81-3.33 3.5 0 6.447.513 8.84 1.54l-4.48 11.01c-1.54-.6-3.633-.9-6.28-.9-4.267 0-8.04 1.687-11.32 5.06-3.287 3.367-4.93 7.783-4.93 13.25zm59.26 36.35c-9.473 0-17.173-3.157-23.1-9.47-5.933-6.32-8.9-14.3-8.9-23.94 0-9.133 2.88-16.983 8.64-23.55 5.76-6.573 13.12-9.86 22.08-9.86 9.3 0 16.747 3.03 22.34 9.09 5.587 6.06 8.38 14.167 8.38 24.32l-.13 2.18h-49.53c.34 6.313 2.45 11.303 6.33 14.97 3.887 3.673 8.433 5.51 13.64 5.51 8.447 0 14.163-3.587 17.15-10.76l10.49 4.36c-2.047 4.86-5.417 8.933-10.11 12.22-4.693 3.287-10.453 4.93-17.28 4.93zm-19.45-40.96h36.35c-.26-3.587-1.903-7-4.93-10.24-3.027-3.247-7.527-4.87-13.5-4.87-4.353 0-8.13 1.367-11.33 4.1-3.2 2.733-5.397 6.403-6.59 11.01zm81.66 40.96c-7 0-12.78-1.707-17.34-5.12-4.567-3.413-7.917-7.68-10.05-12.8l10.49-4.35c3.333 7.847 9.01 11.77 17.03 11.77 3.667 0 6.673-.81 9.02-2.43 2.347-1.62 3.52-3.753 3.52-6.4 0-4.093-2.857-6.867-8.57-8.32l-12.68-3.07c-4.007-1.027-7.803-2.97-11.39-5.83-3.58-2.853-5.37-6.713-5.37-11.58 0-5.547 2.453-10.047 7.36-13.5 4.907-3.46 10.73-5.19 17.47-5.19 5.547 0 10.497 1.26 14.85 3.78 4.347 2.513 7.46 6.117 9.34 10.81l-10.24 4.23c-2.307-5.547-7.087-8.32-14.34-8.32-3.493 0-6.437.723-8.83 2.17-2.387 1.453-3.58 3.417-3.58 5.89 0 3.587 2.773 6.02 8.32 7.3l12.41 2.94c5.893 1.367 10.247 3.713 13.06 7.04 2.813 3.327 4.22 7.083 4.22 11.27 0 5.627-2.303 10.32-6.91 14.08-4.607 3.753-10.537 5.63-17.79 5.63zm60.16-1.03c-6.573 0-11.587-1.747-15.04-5.24-3.453-3.5-5.18-8.45-5.18-14.85v-32.9h-11.01v-10.75h11.01v-19.2h11.77v19.2h15.36v10.75h-15.36v32c0 6.827 2.817 10.24 8.45 10.24 2.133 0 3.927-.34 5.38-1.02l4.09 10.11c-2.56 1.107-5.717 1.66-9.47 1.66zm21.76-56.25c6.06-6.36 13.783-9.54 23.17-9.54 9.387 0 17.11 3.18 23.17 9.54 6.053 6.353 9.08 14.31 9.08 23.87s-3.027 17.517-9.08 23.87c-6.06 6.36-13.783 9.54-23.17 9.54-9.387 0-17.11-3.18-23.17-9.54-6.06-6.353-9.09-14.31-9.09-23.87s3.03-17.517 9.09-23.87zm8.77 40.32c4.053 4.14 8.853 6.21 14.4 6.21 5.547 0 10.347-2.07 14.4-6.21 4.053-4.14 6.08-9.623 6.08-16.45s-2.027-12.31-6.08-16.45c-4.053-4.14-8.853-6.21-14.4-6.21-5.547 0-10.347 2.07-14.4 6.21-4.053 4.14-6.08 9.623-6.08 16.45s2.027 12.31 6.08 16.45zm67.9-19.39V272h-11.77v-62.72h11.26v10.24h.51c1.193-3.413 3.647-6.23 7.36-8.45 3.713-2.22 7.32-3.33 10.82-3.33s6.443.513 8.83 1.54l-4.48 11.01c-1.533-.6-3.623-.9-6.27-.9-4.267 0-8.043 1.687-11.33 5.06-3.287 3.367-4.93 7.783-4.93 13.25zm59.27 36.35c-9.473 0-17.177-3.157-23.11-9.47-5.927-6.32-8.89-14.3-8.89-23.94 0-9.133 2.88-16.983 8.64-23.55 5.76-6.573 13.12-9.86 22.08-9.86 9.3 0 16.743 3.03 22.33 9.09 5.593 6.06 8.39 14.167 8.39 24.32l-.13 2.18h-49.54c.34 6.313 2.453 11.303 6.34 14.97 3.88 3.673 8.423 5.51 13.63 5.51 8.447 0 14.163-3.587 17.15-10.76l10.5 4.36c-2.047 4.86-5.417 8.933-10.11 12.22-4.693 3.287-10.453 4.93-17.28 4.93zm-19.46-40.96h36.35c-.253-3.587-1.897-7-4.93-10.24-3.027-3.247-7.527-4.87-13.5-4.87-4.353 0-8.13 1.367-11.33 4.1-3.2 2.733-5.397 6.403-6.59 11.01z" fill-opacity=".54" fill="#000"/>
  </g>
</svg>
